# xmcd
#
# Track frame offsets:
# 150
# 26983
# 48910
# 64876
# 92950
# 122600
# 140970
# 165201
# 191375
# 212808
# 235796
# 258964
# 277563
#
# Disc length: 3888 seconds
#
#
# Revision: 1
# Processed by: cddbd v1.5.1PL2 Copyright (c) Steve Scherf et al.
# Submitted via: FreeRIP 2.60 
#
DISCID=b30f2e0d
DTITLE=Bryan Adams - Best Ballads
DYEAR=1995
DGENRE=Blues
TTITLE0=Please Forgive Me
TTITLE1=Have You Ever Really Loved A Woman?
TTITLE2=Straight From The Heart
TTITLE3=Do I Have To Say The Words?
TTITLE4=(Everything I Do) I Do It For You
TTITLE5=Heaven
TTITLE6=All I Want Is You
TTITLE7=Thought I'D Died And Gone To Heaven
TTITLE8=All For Love
TTITLE9=Vanishing
TTITLE10=Depend On me
TTITLE11=Christmas Time
TTITLE12=O Sole Mio
EXTD=
EXTT0=
EXTT1=
EXTT2=
EXTT3=
EXTT4=
EXTT5=
EXTT6=
EXTT7=
EXTT8=
EXTT9=
EXTT10=
EXTT11=
EXTT12=
PLAYORDER=
